PathFileType	4	(X/Y/Z)	Patient4_TMGait_0pt4_01_right_14.trc.trc
DataRate	CameraRate	NumFrames	NumMarkers	Units	OrigDataRate	OrigDataStartFrame	OrigNumFrames
77.777777777778	77.777777777778	6	33	mm	77.777777777778	89	       141
Frame#	Time	Sacral			L.Shoulder			Chest			R.Shoulder			Neck			R.ASIS			L.ASIS			R.Thigh.Superior			R.Thigh.Lateral			R.Thigh.Inferior			R.Patella			L.Thigh.Superior			L.Thigh.Lateral			L.Thigh.Inferior			L.Patella			L.Shank.Superior			L.Shank.Lateral			L.Shank.Inferior			R.Shank.Superior			R.Shank.Lateral			R.Shank.Inferior			R.Heel			R.Midfoot.Superior			R.Midfoot.Lateral			R.Toe			L.Heel			L.Midfoot.Lateral			L.Midfoot.Superior			L.Toe			L.Elbow			L.Wrist			R.Elbow			R.Wrist			
		X1	Y1	Z1	X2	Y2	Z2	X3	Y3	Z3	X4	Y4	Z4	X5	Y5	Z5	X6	Y6	Z6	X7	Y7	Z7	X8	Y8	Z8	X9	Y9	Z9	X10	Y10	Z10	X11	Y11	Z11	X12	Y12	Z12	X13	Y13	Z13	X14	Y14	Z14	X15	Y15	Z15	X16	Y16	Z16	X17	Y17	Z17	X18	Y18	Z18	X19	Y19	Z19	X20	Y20	Z20	X21	Y21	Z21	X22	Y22	Z22	X23	Y23	Z23	X24	Y24	Z24	X25	Y25	Z25	X26	Y26	Z26	X27	Y27	Z27	X28	Y28	Z28	X29	Y29	Z29	X30	Y30	Z30	X31	Y31	Z31	X32	Y32	Z32	X33	Y33	Z33	

89	19.181428571429	807.755946603911	1016.480963178721	450.352904500839	965.291474201815	1433.792490960401	233.901670758901	1091.614935656549	1370.426651372523	379.258215644814	1035.956195982265	1451.684057641743	561.665027903946	972.652631988856	1500.421872457996	399.618168691662	1045.427511266896	946.015244953570	539.049140660394	1000.160478069859	964.110749313465	268.768471001888	1071.776531905732	739.722985269055	520.905605372304	993.437213881217	637.077499305393	599.529797538414	1064.031614719789	573.326771899534	520.722013377500	1058.074855212576	472.457030734132	543.031524590781	1052.658064844126	754.078159195711	293.537601372848	962.136786509177	636.698583321297	242.937067443384	1055.096244036459	561.355037405190	296.483652601267	1057.110954315769	492.170604363519	305.323119509540	1030.128704123008	419.730802363895	299.991893186612	936.607245497586	305.282234280535	257.019192223930	993.769215125365	193.388128469416	322.589448061375	993.819199446975	400.098332623633	554.724333672619	888.469063302908	338.092687844634	624.289602384962	891.978060691061	227.903796383545	573.156622082548	706.092015159336	113.992632593668	559.987302444204	887.101100717160	110.693590549271	587.761387091307	786.022558859536	76.296718543307	627.840205286001	983.532721132092	35.393884592602	605.234961841379	871.312445345267	38.549301728201	375.516383892547	937.421777795410	34.996685695015	288.434287776658	1022.788341710638	95.927192542389	307.372003432152	1148.399582578505	44.303152568535	267.830382820298	905.047660457314	1088.818190534042	116.381963467740	1014.789764529480	856.610971201610	57.464292026660	1044.157019417794	1107.444728113259	692.644616823262	1197.724431262882	905.618599926202	639.786649249739	
90	19.194285714286	806.158609756106	1016.725729207250	446.962071319153	965.812441566320	1433.999927176587	231.132559503531	1091.036439298001	1370.412993089951	377.330050994212	1034.271501299882	1451.559451206689	559.441431534817	972.154090610144	1500.565528128141	396.974768667252	1043.384354355430	946.319266937504	536.650785199256	999.502304589866	964.325095255498	266.204281640296	1074.166064817153	741.622243099126	518.490228161534	998.075317165405	637.636329551137	597.296224952357	1070.522523198102	574.935443640333	518.757194185664	1065.635690970016	472.902370592720	541.690238166855	1050.429111260550	753.409021349584	291.673608451916	959.301923764640	636.653241415957	241.031354927542	1051.107402351605	560.762782515215	295.560722367390	1052.444854853765	491.717025289655	304.548129977564	1025.508228800873	419.484997879726	299.172421992529	932.118159166342	305.025284194682	256.274095565823	988.874756539223	193.258772512278	322.330926587526	999.726012111026	401.153980608030	553.250514517032	892.710808755237	341.965920864923	622.717537944350	893.861509027908	231.420503154967	572.348161699191	705.341639751907	123.369330794505	559.396878133163	885.986197882935	113.316970224100	587.574087277550	783.663960482341	82.845748229683	627.412681026942	979.061965041834	34.652605785242	605.235710907405	866.140971847844	38.534579628609	375.467060533832	932.249360939745	34.973528104835	288.383550278982	1017.667043346119	95.809614531479	307.353749207647	1143.281045347338	44.042478762834	267.797131116665	906.727266335610	1090.180310089338	110.361516570501	1023.021634736873	861.539323628608	49.410799040225	1035.159191207569	1107.028155695841	690.358558273970	1178.219336218743	895.157585067417	645.649561166199	
91	19.207142857143	804.426875527000	1016.910651508855	443.671293445026	966.309493236684	1434.090553424889	228.532704032667	1090.430436407355	1370.294738527419	375.571889851087	1032.565505219899	1451.346103557180	557.378601750160	971.691766200642	1500.625399616160	394.481819509312	1041.242997457768	946.603931225328	534.424390893202	998.770561978813	964.434523994794	263.816378811669	1076.495901440506	743.690721769249	516.046087238869	1002.809805249097	638.330467895033	595.035711168236	1076.977642715604	576.807337107575	516.632009571902	1073.264502889728	473.671743690976	540.089284181327	1048.298617602606	752.784894116002	290.075047307860	956.647599930518	636.590245694801	239.249243642205	1047.306189998817	560.184334713636	294.765182018778	1048.016918246792	491.260608579653	303.911963799309	1021.071770116606	419.224967167777	298.467155395681	927.784769922490	304.796750620844	255.569847398410	984.065280734480	193.121738650584	322.119197853072	1005.828613113775	402.406711024205	551.578051275808	897.296146712903	345.994020832961	620.998476132241	896.047462386580	235.200534233067	571.334143393977	705.125663453521	133.223176160832	558.535753067997	885.136623403243	116.312611917915	587.229846956736	781.673919081825	89.961738141123	626.821720028385	974.702899091389	33.835004775106	605.288652782616	860.978174450579	38.530109509268	375.411148467379	927.094605852473	34.965698197632	288.333309353918	1012.570689657244	95.703094690140	307.349818278993	1138.182438708182	43.771281483900	267.774051739203	908.359272996155	1091.575377436826	104.254503570281	1031.016312157354	866.774388077926	41.030072562175	1026.161188307826	1106.746425188205	688.279203295094	1158.231240472079	885.813263616748	651.740806358067	
92	19.220000000000	802.579993579165	1017.052272522786	440.481859576569	966.774462434439	1434.080167907667	226.108045350033	1089.792231165506	1370.100854031471	373.990543060058	1030.828594648585	1451.077118923688	555.479126514807	971.258783626672	1500.620155439446	392.147517630983	1039.030660702784	946.880740157920	532.395259169336	997.970646313824	964.439680934438	261.632699045206	1078.700145153183	745.925986717131	513.560706623786	1007.569103843691	639.182147111627	592.733633991547	1083.282529574806	578.948030093949	514.310844911332	1080.860196440475	474.765920820928	538.206612706086	1046.271191031568	752.190358908802	288.674766093197	954.115244878610	636.505058184850	237.603005159295	1043.665993225553	559.608219598032	294.051525956816	1043.808829134908	490.804085153541	303.384838087224	1016.797570844144	418.953933065955	297.857123774874	923.573357302388	304.598046565540	254.910230140123	979.327807101106	192.980092450352	321.944906360551	1012.022252186057	403.859090917030	549.698869153170	902.117847815457	350.148523602599	619.112660727171	898.483731331523	239.213019839998	570.105536732250	705.435180584553	143.388210072526	557.363770286366	884.556557805194	119.661115154919	586.710269399340	780.074023011598	97.527543404507	626.029608120041	970.505581014023	33.008057456394	605.369034996429	855.822291769363	38.534127327313	375.350682925636	921.955211214027	34.969604732890	288.284412354141	1007.495198662405	95.606599592213	307.355212750849	1133.099666359695	43.492176726581	267.759326203319	909.925629855089	1093.019135765939	98.090928323767	1038.728710753388	872.332320056898	32.320446979578	1017.163213662773	1106.647236394778	686.437059260139	1137.936333712412	877.705751664227	657.954029190970	
93	19.232857142857	800.644847553824	1017.170689034286	437.398982790631	967.213834912752	1433.989932088404	223.859459411513	1089.124644061928	1369.860199887853	372.591172982693	1029.057124772663	1450.788817979567	553.741416882903	970.851933935697	1500.571013926145	389.976127699301	1036.770636832433	947.159882346330	530.582462117972	997.111868186032	964.351378085433	259.670540774828	1080.720341089768	748.317333197338	511.034882258677	1012.284005733285	640.207141349381	590.386726774669	1089.337055934078	581.350782634600	511.779975532094	1088.326154144810	476.174946275723	536.041317602642	1044.338743764723	751.608913021905	287.406236758714	951.643865600552	636.398487386012	236.100132074003	1040.148162840212	559.025923276265	293.386878732055	1039.781141856352	490.350500984025	302.940711858399	1012.650486103768	418.678232369715	297.324790018023	919.442899817802	304.430684097520	254.298115757481	974.642974269807	192.838710367290	321.798842546100	1018.206588291875	405.508391489851	547.619903185356	907.067725230345	354.393915802839	617.049332423490	901.122421620929	243.411552308403	568.662431119084	706.250959294564	153.654282401725	555.857635622985	884.263330246059	123.318163056521	585.998535803202	778.891912438199	105.381490261677	625.004202202022	966.553861148146	32.265787110245	605.435016887693	850.670219048543	38.545158600243	375.287405159218	916.827251123502	34.981414802231	288.237463692193	1002.434061084170	95.519126214268	307.364444783973	1128.026774785761	43.209341966896	267.750866941029	911.402508241017	1094.535764216791	91.903079841232	1046.119560838655	878.238835117372	23.297957560919	1008.167530001925	1106.780130905293	684.857270643393	1117.531335703395	870.921340975141	664.177517950469	
94	19.245714285714	798.653525491389	1017.286553087299	434.431742215884	967.645756502487	1433.843364763526	221.783825335183	1088.436982793978	1369.598399303070	371.376642919703	1027.254248868052	1450.516914659808	552.160084922790	970.471542794428	1500.499264878973	387.967753030607	1034.478864866334	947.450131852695	528.995846105331	996.211338888996	964.191923479331	257.934176997850	1082.507180896976	750.845732074950	508.484408949955	1016.889078101627	641.413114511589	588.007091262669	1095.058782799570	583.997115117401	509.051879522756	1095.574866498181	477.880183043737	533.616538018688	1042.482598212974	751.025644974918	286.214330822090	949.177398353403	636.276193041262	234.743466281788	1036.708024463490	558.432841589625	292.752959663077	1035.879753997537	489.902828668237	302.560031494480	1008.587951897796	418.406169021033	296.856001600575	915.351119924834	304.296145116290	253.734873173047	969.988336772777	192.703531088271	321.672830374495	1024.292193544695	407.345970758819	545.364061427031	912.045183844889	358.685370506036	614.809041605568	903.925997818810	247.732097110002	567.012945263996	707.547053408323	163.773475822898	554.014504238135	884.290972466129	127.215343803692	585.079151330026	778.165090128966	113.323100606198	623.722536881800	962.973214795407	31.721343022292	605.428529882626	845.518394247449	38.562364058184	375.222283538254	911.706112136584	34.997627779612	288.192552205766	997.379591353733	95.440094627264	307.372042343201	1122.957205161831	42.928133647991	267.746435494437	912.764931404742	1096.155182156792	85.721687871574	1053.160814325505	884.527642284564	13.997361232122	999.178475849509	1107.191643935317	683.558480091383	1097.223916424290	865.505679732959	670.301182213950	
